<mxfile host="app.diagrams.net" modified="2023-03-29T15:52:02.440Z" agent="Mozilla/5.0 (Windows NT 10.0; Win64; x64) AppleWebKit/537.36 (KHTML, like Gecko) Chrome/111.0.0.0 Safari/537.36" etag="zeuFcBRcT0YBnpwYZOvA" version="21.1.2" type="github" pages="5">
  <diagram name="페이지-1" id="QFwXqVVtOuhSBCvKckYJ">
    <mxGraphModel dx="901" dy="937" grid="1" gridSize="10" guides="1" tooltips="1" connect="1" arrows="1" fold="1" page="1" pageScale="1" pageWidth="827" pageHeight="1169" math="0" shadow="0">
      <root>
        <mxCell id="0" />
        <mxCell id="1" parent="0" />
        <mxCell id="TKa2AWvksEzY80sRVNQj-1" value="Player" style="shape=umlActor;verticalLabelPosition=bottom;verticalAlign=top;html=1;outlineConnect=0;" parent="1" vertex="1">
          <mxGeometry x="1110" y="260" width="30" height="60" as="geometry" />
        </mxCell>
        <mxCell id="TKa2AWvksEzY80sRVNQj-7" value="" style="rounded=0;whiteSpace=wrap;html=1;" parent="1" vertex="1">
          <mxGeometry x="1230" y="100" width="600" height="530" as="geometry" />
        </mxCell>
        <mxCell id="TKa2AWvksEzY80sRVNQj-8" value="UI 툴 바꾸기" style="ellipse;whiteSpace=wrap;html=1;" parent="1" vertex="1">
          <mxGeometry x="1270" y="380" width="190" height="60" as="geometry" />
        </mxCell>
        <mxCell id="TKa2AWvksEzY80sRVNQj-10" value="Main UI 에서 스토리 보기&amp;nbsp;&lt;br&gt;Guide에서 플레이 방법 보기&lt;br&gt;Option에서 다시하기 등" style="ellipse;whiteSpace=wrap;html=1;" parent="1" vertex="1">
          <mxGeometry x="1517" y="150" width="271" height="100" as="geometry" />
        </mxCell>
        <mxCell id="TKa2AWvksEzY80sRVNQj-11" value="Map 툴 얻기" style="ellipse;whiteSpace=wrap;html=1;" parent="1" vertex="1">
          <mxGeometry x="1286" y="270" width="136" height="80" as="geometry" />
        </mxCell>
        <mxCell id="gr91UfhtkXh86Y-uoXjA-2" value="조이스틱을 통한 이동" style="strokeWidth=2;html=1;shape=mxgraph.flowchart.start_1;whiteSpace=wrap;" parent="1" vertex="1">
          <mxGeometry x="1255" y="130" width="220" height="100" as="geometry" />
        </mxCell>
        <mxCell id="gr91UfhtkXh86Y-uoXjA-5" value="화면 중앙 드래그 툴 작동" style="strokeWidth=2;html=1;shape=mxgraph.flowchart.start_1;whiteSpace=wrap;" parent="1" vertex="1">
          <mxGeometry x="1248.5" y="480" width="233" height="120" as="geometry" />
        </mxCell>
        <mxCell id="7vTayhFNNw9DyVIhhzZf-3" value="Guide UI 에서 플레이 방법 보기" style="ellipse;whiteSpace=wrap;html=1;" vertex="1" parent="1">
          <mxGeometry x="1547" y="300" width="220" height="100" as="geometry" />
        </mxCell>
        <mxCell id="7vTayhFNNw9DyVIhhzZf-4" value="Option 환경설정" style="ellipse;whiteSpace=wrap;html=1;" vertex="1" parent="1">
          <mxGeometry x="1517" y="450" width="271" height="100" as="geometry" />
        </mxCell>
      </root>
    </mxGraphModel>
  </diagram>
  <diagram name="User Case Diagram" id="_l-K0blJii1475b7t7_h">
    <mxGraphModel dx="1358" dy="569" grid="1" gridSize="10" guides="1" tooltips="1" connect="1" arrows="1" fold="1" page="1" pageScale="1" pageWidth="827" pageHeight="1169" math="0" shadow="0">
      <root>
        <mxCell id="lyqAx3bZcfFtdC4YAa5E-0" />
        <mxCell id="lyqAx3bZcfFtdC4YAa5E-1" parent="lyqAx3bZcfFtdC4YAa5E-0" />
        <mxCell id="lyqAx3bZcfFtdC4YAa5E-2" value="Player" style="shape=umlActor;verticalLabelPosition=bottom;verticalAlign=top;html=1;outlineConnect=0;" vertex="1" parent="lyqAx3bZcfFtdC4YAa5E-1">
          <mxGeometry x="100" y="460" width="30" height="60" as="geometry" />
        </mxCell>
        <mxCell id="afQ5bSVbSueIJNbFIkNy-7" value="" style="swimlane;startSize=0;" vertex="1" parent="lyqAx3bZcfFtdC4YAa5E-1">
          <mxGeometry x="180" y="300" width="530" height="520" as="geometry" />
        </mxCell>
        <mxCell id="afQ5bSVbSueIJNbFIkNy-9" value="캐릭터 위치 조작" style="ellipse;whiteSpace=wrap;html=1;" vertex="1" parent="afQ5bSVbSueIJNbFIkNy-7">
          <mxGeometry x="100" y="70" width="200" height="50" as="geometry" />
        </mxCell>
        <mxCell id="afQ5bSVbSueIJNbFIkNy-10" value="Tools 획득 및 조작" style="ellipse;whiteSpace=wrap;html=1;" vertex="1" parent="afQ5bSVbSueIJNbFIkNy-7">
          <mxGeometry x="100" y="150" width="170" height="50" as="geometry" />
        </mxCell>
        <mxCell id="afQ5bSVbSueIJNbFIkNy-17" value="벽면 조작 (퍼즐 풀기)" style="ellipse;whiteSpace=wrap;html=1;" vertex="1" parent="afQ5bSVbSueIJNbFIkNy-7">
          <mxGeometry x="50" y="270" width="150" height="50" as="geometry" />
        </mxCell>
        <mxCell id="afQ5bSVbSueIJNbFIkNy-18" value="게임" style="text;html=1;strokeColor=none;fillColor=none;align=center;verticalAlign=middle;whiteSpace=wrap;rounded=0;" vertex="1" parent="afQ5bSVbSueIJNbFIkNy-7">
          <mxGeometry x="140" width="110" height="30" as="geometry" />
        </mxCell>
        <mxCell id="afQ5bSVbSueIJNbFIkNy-19" value="게임 옵션 변경" style="ellipse;whiteSpace=wrap;html=1;" vertex="1" parent="afQ5bSVbSueIJNbFIkNy-7">
          <mxGeometry x="100" y="350" width="100" height="50" as="geometry" />
        </mxCell>
        <mxCell id="afQ5bSVbSueIJNbFIkNy-29" value="스토리 보기" style="ellipse;whiteSpace=wrap;html=1;" vertex="1" parent="afQ5bSVbSueIJNbFIkNy-7">
          <mxGeometry x="90" y="430" width="100" height="50" as="geometry" />
        </mxCell>
        <mxCell id="afQ5bSVbSueIJNbFIkNy-38" value="&amp;lt;&amp;lt;include&amp;gt;&amp;gt;" style="endArrow=open;endSize=12;dashed=1;html=1;rounded=0;exitX=0.5;exitY=1;exitDx=0;exitDy=0;entryX=0.5;entryY=0;entryDx=0;entryDy=0;" edge="1" parent="afQ5bSVbSueIJNbFIkNy-7" source="afQ5bSVbSueIJNbFIkNy-10" target="afQ5bSVbSueIJNbFIkNy-39">
          <mxGeometry width="160" relative="1" as="geometry">
            <mxPoint x="-120" y="190" as="sourcePoint" />
            <mxPoint x="170" y="250" as="targetPoint" />
          </mxGeometry>
        </mxCell>
        <mxCell id="afQ5bSVbSueIJNbFIkNy-39" value="벽면 색 변환" style="ellipse;whiteSpace=wrap;html=1;" vertex="1" parent="afQ5bSVbSueIJNbFIkNy-7">
          <mxGeometry x="280" y="270" width="100" height="50" as="geometry" />
        </mxCell>
        <mxCell id="afQ5bSVbSueIJNbFIkNy-41" value="&amp;lt;&amp;lt;include&amp;gt;&amp;gt;" style="endArrow=open;endSize=12;dashed=1;html=1;rounded=0;exitX=1;exitY=0.5;exitDx=0;exitDy=0;entryX=0;entryY=1;entryDx=0;entryDy=0;" edge="1" parent="afQ5bSVbSueIJNbFIkNy-7" source="afQ5bSVbSueIJNbFIkNy-17" target="afQ5bSVbSueIJNbFIkNy-39">
          <mxGeometry width="160" relative="1" as="geometry">
            <mxPoint x="180" y="200" as="sourcePoint" />
            <mxPoint x="295" y="277" as="targetPoint" />
          </mxGeometry>
        </mxCell>
        <mxCell id="afQ5bSVbSueIJNbFIkNy-51" style="edgeStyle=orthogonalEdgeStyle;rounded=0;orthogonalLoop=1;jettySize=auto;html=1;exitX=0;exitY=0.5;exitDx=0;exitDy=0;" edge="1" parent="afQ5bSVbSueIJNbFIkNy-7" source="afQ5bSVbSueIJNbFIkNy-46">
          <mxGeometry relative="1" as="geometry">
            <mxPoint x="410.2592592592591" y="195.2962962962962" as="targetPoint" />
          </mxGeometry>
        </mxCell>
        <mxCell id="afQ5bSVbSueIJNbFIkNy-46" value="성공 스토리 출력" style="ellipse;whiteSpace=wrap;html=1;" vertex="1" parent="afQ5bSVbSueIJNbFIkNy-7">
          <mxGeometry x="410" y="170" width="100" height="50" as="geometry" />
        </mxCell>
        <mxCell id="afQ5bSVbSueIJNbFIkNy-47" value="실패 해당 Room RE" style="ellipse;whiteSpace=wrap;html=1;" vertex="1" parent="afQ5bSVbSueIJNbFIkNy-7">
          <mxGeometry x="430" y="300" width="100" height="50" as="geometry" />
        </mxCell>
        <mxCell id="afQ5bSVbSueIJNbFIkNy-49" value="&amp;lt;&amp;lt;extended&amp;gt;&amp;gt;" style="endArrow=open;endSize=12;dashed=1;html=1;rounded=0;exitX=1;exitY=0;exitDx=0;exitDy=0;entryX=0;entryY=0.5;entryDx=0;entryDy=0;" edge="1" parent="afQ5bSVbSueIJNbFIkNy-7" source="afQ5bSVbSueIJNbFIkNy-39" target="afQ5bSVbSueIJNbFIkNy-46">
          <mxGeometry width="160" relative="1" as="geometry">
            <mxPoint x="190" y="290" as="sourcePoint" />
            <mxPoint x="294" y="277" as="targetPoint" />
          </mxGeometry>
        </mxCell>
        <mxCell id="afQ5bSVbSueIJNbFIkNy-50" value="&amp;lt;&amp;lt;extended&amp;gt;&amp;gt;" style="endArrow=open;endSize=12;dashed=1;html=1;rounded=0;exitX=1;exitY=0;exitDx=0;exitDy=0;entryX=0.5;entryY=0;entryDx=0;entryDy=0;" edge="1" parent="afQ5bSVbSueIJNbFIkNy-7" source="afQ5bSVbSueIJNbFIkNy-39" target="afQ5bSVbSueIJNbFIkNy-47">
          <mxGeometry width="160" relative="1" as="geometry">
            <mxPoint x="366" y="277" as="sourcePoint" />
            <mxPoint x="420" y="205" as="targetPoint" />
          </mxGeometry>
        </mxCell>
        <mxCell id="afQ5bSVbSueIJNbFIkNy-30" value="" style="endArrow=none;html=1;rounded=0;exitX=1;exitY=0.3333333333333333;exitDx=0;exitDy=0;exitPerimeter=0;entryX=-0.009;entryY=0.625;entryDx=0;entryDy=0;entryPerimeter=0;" edge="1" parent="lyqAx3bZcfFtdC4YAa5E-1" source="lyqAx3bZcfFtdC4YAa5E-2" target="afQ5bSVbSueIJNbFIkNy-9">
          <mxGeometry width="50" height="50" relative="1" as="geometry">
            <mxPoint x="380" y="400" as="sourcePoint" />
            <mxPoint x="430" y="350" as="targetPoint" />
          </mxGeometry>
        </mxCell>
        <mxCell id="afQ5bSVbSueIJNbFIkNy-32" value="" style="endArrow=none;html=1;rounded=0;entryX=0;entryY=0.5;entryDx=0;entryDy=0;" edge="1" parent="lyqAx3bZcfFtdC4YAa5E-1" target="afQ5bSVbSueIJNbFIkNy-10">
          <mxGeometry width="50" height="50" relative="1" as="geometry">
            <mxPoint x="130" y="480" as="sourcePoint" />
            <mxPoint x="248" y="364" as="targetPoint" />
          </mxGeometry>
        </mxCell>
        <mxCell id="afQ5bSVbSueIJNbFIkNy-34" value="" style="endArrow=none;html=1;rounded=0;entryX=0.047;entryY=0.342;entryDx=0;entryDy=0;exitX=1;exitY=0.3333333333333333;exitDx=0;exitDy=0;exitPerimeter=0;entryPerimeter=0;" edge="1" parent="lyqAx3bZcfFtdC4YAa5E-1" source="lyqAx3bZcfFtdC4YAa5E-2" target="afQ5bSVbSueIJNbFIkNy-17">
          <mxGeometry width="50" height="50" relative="1" as="geometry">
            <mxPoint x="140" y="490" as="sourcePoint" />
            <mxPoint x="240" y="505" as="targetPoint" />
          </mxGeometry>
        </mxCell>
        <mxCell id="afQ5bSVbSueIJNbFIkNy-35" value="" style="endArrow=none;html=1;rounded=0;entryX=0;entryY=0.4;entryDx=0;entryDy=0;exitX=1;exitY=0.3333333333333333;exitDx=0;exitDy=0;exitPerimeter=0;entryPerimeter=0;" edge="1" parent="lyqAx3bZcfFtdC4YAa5E-1" source="lyqAx3bZcfFtdC4YAa5E-2" target="afQ5bSVbSueIJNbFIkNy-19">
          <mxGeometry width="50" height="50" relative="1" as="geometry">
            <mxPoint x="140" y="490" as="sourcePoint" />
            <mxPoint x="244" y="577" as="targetPoint" />
          </mxGeometry>
        </mxCell>
        <mxCell id="afQ5bSVbSueIJNbFIkNy-36" value="" style="endArrow=none;html=1;rounded=0;entryX=0;entryY=0.5;entryDx=0;entryDy=0;exitX=1;exitY=0.3333333333333333;exitDx=0;exitDy=0;exitPerimeter=0;" edge="1" parent="lyqAx3bZcfFtdC4YAa5E-1" source="lyqAx3bZcfFtdC4YAa5E-2" target="afQ5bSVbSueIJNbFIkNy-29">
          <mxGeometry width="50" height="50" relative="1" as="geometry">
            <mxPoint x="140" y="490" as="sourcePoint" />
            <mxPoint x="240" y="650" as="targetPoint" />
          </mxGeometry>
        </mxCell>
      </root>
    </mxGraphModel>
  </diagram>
  <diagram name="User Case Diagram의 복사본" id="Lh391dpkSf-bFvywFwnt">
    <mxGraphModel dx="1516" dy="615" grid="1" gridSize="10" guides="1" tooltips="1" connect="1" arrows="1" fold="1" page="1" pageScale="1" pageWidth="827" pageHeight="1169" math="0" shadow="0">
      <root>
        <mxCell id="aH0OB1pCg1TMgmbP6PJO-0" />
        <mxCell id="aH0OB1pCg1TMgmbP6PJO-1" parent="aH0OB1pCg1TMgmbP6PJO-0" />
        <mxCell id="aH0OB1pCg1TMgmbP6PJO-2" value="Player" style="shape=umlActor;verticalLabelPosition=bottom;verticalAlign=top;html=1;outlineConnect=0;" vertex="1" parent="aH0OB1pCg1TMgmbP6PJO-1">
          <mxGeometry x="100" y="460" width="30" height="60" as="geometry" />
        </mxCell>
        <mxCell id="aH0OB1pCg1TMgmbP6PJO-3" value="" style="swimlane;startSize=0;" vertex="1" parent="aH0OB1pCg1TMgmbP6PJO-1">
          <mxGeometry x="180" y="300" width="550" height="520" as="geometry" />
        </mxCell>
        <mxCell id="aH0OB1pCg1TMgmbP6PJO-4" value="캐릭터 위치 조작" style="ellipse;whiteSpace=wrap;html=1;" vertex="1" parent="aH0OB1pCg1TMgmbP6PJO-3">
          <mxGeometry x="100" y="70" width="200" height="50" as="geometry" />
        </mxCell>
        <mxCell id="aH0OB1pCg1TMgmbP6PJO-5" value="Tools 획득 및 조작" style="ellipse;whiteSpace=wrap;html=1;" vertex="1" parent="aH0OB1pCg1TMgmbP6PJO-3">
          <mxGeometry x="100" y="150" width="170" height="50" as="geometry" />
        </mxCell>
        <mxCell id="aH0OB1pCg1TMgmbP6PJO-6" value="벽면 조작 (퍼즐 풀기)" style="ellipse;whiteSpace=wrap;html=1;" vertex="1" parent="aH0OB1pCg1TMgmbP6PJO-3">
          <mxGeometry x="50" y="270" width="150" height="50" as="geometry" />
        </mxCell>
        <mxCell id="aH0OB1pCg1TMgmbP6PJO-7" value="게임" style="text;html=1;strokeColor=none;fillColor=none;align=center;verticalAlign=middle;whiteSpace=wrap;rounded=0;" vertex="1" parent="aH0OB1pCg1TMgmbP6PJO-3">
          <mxGeometry x="140" width="110" height="30" as="geometry" />
        </mxCell>
        <mxCell id="aH0OB1pCg1TMgmbP6PJO-8" value="게임 옵션 변경" style="ellipse;whiteSpace=wrap;html=1;" vertex="1" parent="aH0OB1pCg1TMgmbP6PJO-3">
          <mxGeometry x="100" y="350" width="100" height="50" as="geometry" />
        </mxCell>
        <mxCell id="aH0OB1pCg1TMgmbP6PJO-9" value="스토리 보기" style="ellipse;whiteSpace=wrap;html=1;" vertex="1" parent="aH0OB1pCg1TMgmbP6PJO-3">
          <mxGeometry x="90" y="430" width="100" height="50" as="geometry" />
        </mxCell>
        <mxCell id="aH0OB1pCg1TMgmbP6PJO-11" value="벽면 색 변환" style="ellipse;whiteSpace=wrap;html=1;" vertex="1" parent="aH0OB1pCg1TMgmbP6PJO-3">
          <mxGeometry x="280" y="270" width="100" height="50" as="geometry" />
        </mxCell>
        <mxCell id="aH0OB1pCg1TMgmbP6PJO-13" style="edgeStyle=orthogonalEdgeStyle;rounded=0;orthogonalLoop=1;jettySize=auto;html=1;exitX=0;exitY=0.5;exitDx=0;exitDy=0;" edge="1" parent="aH0OB1pCg1TMgmbP6PJO-3" source="aH0OB1pCg1TMgmbP6PJO-14">
          <mxGeometry relative="1" as="geometry">
            <mxPoint x="410.2592592592591" y="195.2962962962962" as="targetPoint" />
          </mxGeometry>
        </mxCell>
        <mxCell id="aH0OB1pCg1TMgmbP6PJO-14" value="성공 스토리 출력" style="ellipse;whiteSpace=wrap;html=1;" vertex="1" parent="aH0OB1pCg1TMgmbP6PJO-3">
          <mxGeometry x="410" y="170" width="100" height="50" as="geometry" />
        </mxCell>
        <mxCell id="aH0OB1pCg1TMgmbP6PJO-15" value="실패 해당 Room RE" style="ellipse;whiteSpace=wrap;html=1;" vertex="1" parent="aH0OB1pCg1TMgmbP6PJO-3">
          <mxGeometry x="430" y="300" width="100" height="50" as="geometry" />
        </mxCell>
      </root>
    </mxGraphModel>
  </diagram>
  <diagram id="Xgil8g30KkXrD8lQkVII" name="페이지-2">
    <mxGraphModel dx="2901" dy="4631" grid="1" gridSize="10" guides="1" tooltips="1" connect="1" arrows="1" fold="1" page="1" pageScale="1" pageWidth="827" pageHeight="1169" math="0" shadow="0">
      <root>
        <mxCell id="0" />
        <mxCell id="1" parent="0" />
        <mxCell id="MLTy6W-7F-OALNMRYZay-5" value="GameManager" style="swimlane;fontStyle=0;childLayout=stackLayout;horizontal=1;startSize=30;horizontalStack=0;resizeParent=1;resizeParentMax=0;resizeLast=0;collapsible=1;marginBottom=0;whiteSpace=wrap;html=1;fontSize=12;" parent="1" vertex="1">
          <mxGeometry x="-220" y="-2474.5" width="230" height="120" as="geometry">
            <mxRectangle x="-40" y="-2380" width="90" height="30" as="alternateBounds" />
          </mxGeometry>
        </mxCell>
        <mxCell id="MLTy6W-7F-OALNMRYZay-6" value="- _soundManager :&amp;nbsp;SoundManager" style="text;strokeColor=none;fillColor=none;align=left;verticalAlign=middle;spacingLeft=4;spacingRight=4;overflow=hidden;points=[[0,0.5],[1,0.5]];portConstraint=eastwest;rotatable=0;whiteSpace=wrap;html=1;" parent="MLTy6W-7F-OALNMRYZay-5" vertex="1">
          <mxGeometry y="30" width="230" height="30" as="geometry" />
        </mxCell>
        <mxCell id="MLTy6W-7F-OALNMRYZay-9" value="- _inputManager :&amp;nbsp;InputManager" style="text;strokeColor=none;fillColor=none;align=left;verticalAlign=middle;spacingLeft=4;spacingRight=4;overflow=hidden;points=[[0,0.5],[1,0.5]];portConstraint=eastwest;rotatable=0;whiteSpace=wrap;html=1;" parent="MLTy6W-7F-OALNMRYZay-5" vertex="1">
          <mxGeometry y="60" width="230" height="30" as="geometry" />
        </mxCell>
        <mxCell id="MLTy6W-7F-OALNMRYZay-10" value="- _uiManager :&amp;nbsp;UIManager" style="text;strokeColor=none;fillColor=none;align=left;verticalAlign=middle;spacingLeft=4;spacingRight=4;overflow=hidden;points=[[0,0.5],[1,0.5]];portConstraint=eastwest;rotatable=0;whiteSpace=wrap;html=1;" parent="MLTy6W-7F-OALNMRYZay-5" vertex="1">
          <mxGeometry y="90" width="230" height="30" as="geometry" />
        </mxCell>
        <mxCell id="MLTy6W-7F-OALNMRYZay-12" value="SoundManager" style="swimlane;fontStyle=0;childLayout=stackLayout;horizontal=1;startSize=30;horizontalStack=0;resizeParent=1;resizeParentMax=0;resizeLast=0;collapsible=1;marginBottom=0;whiteSpace=wrap;html=1;fontSize=12;" parent="1" vertex="1" collapsed="1">
          <mxGeometry x="90" y="-2504.5" width="90" height="30" as="geometry">
            <mxRectangle x="100" y="-2430" width="330" height="250" as="alternateBounds" />
          </mxGeometry>
        </mxCell>
        <mxCell id="MLTy6W-7F-OALNMRYZay-13" value="- AudioSource[] _audioSources&amp;nbsp;" style="text;strokeColor=none;fillColor=none;align=left;verticalAlign=middle;spacingLeft=4;spacingRight=4;overflow=hidden;points=[[0,0.5],[1,0.5]];portConstraint=eastwest;rotatable=0;whiteSpace=wrap;html=1;" parent="MLTy6W-7F-OALNMRYZay-12" vertex="1">
          <mxGeometry y="30" width="330" height="30" as="geometry" />
        </mxCell>
        <mxCell id="MLTy6W-7F-OALNMRYZay-14" value="- Dictionary&amp;lt;string, AudioClip&amp;gt; _audioClips&amp;nbsp;" style="text;strokeColor=none;fillColor=none;align=left;verticalAlign=middle;spacingLeft=4;spacingRight=4;overflow=hidden;points=[[0,0.5],[1,0.5]];portConstraint=eastwest;rotatable=0;whiteSpace=wrap;html=1;" parent="MLTy6W-7F-OALNMRYZay-12" vertex="1">
          <mxGeometry y="60" width="330" height="30" as="geometry" />
        </mxCell>
        <mxCell id="MLTy6W-7F-OALNMRYZay-15" value="+ Init() : void" style="text;strokeColor=none;fillColor=none;align=left;verticalAlign=middle;spacingLeft=4;spacingRight=4;overflow=hidden;points=[[0,0.5],[1,0.5]];portConstraint=eastwest;rotatable=0;whiteSpace=wrap;html=1;" parent="MLTy6W-7F-OALNMRYZay-12" vertex="1">
          <mxGeometry y="90" width="330" height="40" as="geometry" />
        </mxCell>
        <mxCell id="MLTy6W-7F-OALNMRYZay-16" value="" style="endArrow=none;html=1;rounded=0;exitX=0.009;exitY=-0.01;exitDx=0;exitDy=0;exitPerimeter=0;entryX=0.991;entryY=0.015;entryDx=0;entryDy=0;entryPerimeter=0;" parent="MLTy6W-7F-OALNMRYZay-12" source="MLTy6W-7F-OALNMRYZay-15" target="MLTy6W-7F-OALNMRYZay-15" edge="1">
          <mxGeometry width="50" height="50" relative="1" as="geometry">
            <mxPoint x="110" y="60" as="sourcePoint" />
            <mxPoint x="226" y="120" as="targetPoint" />
            <Array as="points" />
          </mxGeometry>
        </mxCell>
        <mxCell id="MLTy6W-7F-OALNMRYZay-17" value="+ Play(string, Define.Sound , float) :void&amp;nbsp;" style="text;strokeColor=none;fillColor=none;align=left;verticalAlign=middle;spacingLeft=4;spacingRight=4;overflow=hidden;points=[[0,0.5],[1,0.5]];portConstraint=eastwest;rotatable=0;whiteSpace=wrap;html=1;" parent="MLTy6W-7F-OALNMRYZay-12" vertex="1">
          <mxGeometry y="130" width="330" height="40" as="geometry" />
        </mxCell>
        <mxCell id="MLTy6W-7F-OALNMRYZay-18" value="+ Play(AudioClip, Define.Sound type, float) : void&amp;nbsp;" style="text;strokeColor=none;fillColor=none;align=left;verticalAlign=middle;spacingLeft=4;spacingRight=4;overflow=hidden;points=[[0,0.5],[1,0.5]];portConstraint=eastwest;rotatable=0;whiteSpace=wrap;html=1;" parent="MLTy6W-7F-OALNMRYZay-12" vertex="1">
          <mxGeometry y="170" width="330" height="40" as="geometry" />
        </mxCell>
        <mxCell id="MLTy6W-7F-OALNMRYZay-19" value="- GetOrAddAudioClip(string, Define.Sound) : AudioClip&amp;nbsp;" style="text;strokeColor=none;fillColor=none;align=left;verticalAlign=middle;spacingLeft=4;spacingRight=4;overflow=hidden;points=[[0,0.5],[1,0.5]];portConstraint=eastwest;rotatable=0;whiteSpace=wrap;html=1;" parent="MLTy6W-7F-OALNMRYZay-12" vertex="1">
          <mxGeometry y="210" width="330" height="40" as="geometry" />
        </mxCell>
        <mxCell id="MLTy6W-7F-OALNMRYZay-20" value="InputManager" style="swimlane;fontStyle=0;childLayout=stackLayout;horizontal=1;startSize=30;horizontalStack=0;resizeParent=1;resizeParentMax=0;resizeLast=0;collapsible=1;marginBottom=0;whiteSpace=wrap;html=1;fontSize=12;" parent="1" vertex="1" collapsed="1">
          <mxGeometry x="90" y="-2444.5" width="90" height="30" as="geometry">
            <mxRectangle x="490" y="-2350" width="370" height="210" as="alternateBounds" />
          </mxGeometry>
        </mxCell>
        <mxCell id="MLTy6W-7F-OALNMRYZay-21" value="&lt;div&gt;- _pressed : pressed&lt;/div&gt;" style="text;strokeColor=none;fillColor=none;align=left;verticalAlign=middle;spacingLeft=4;spacingRight=4;overflow=hidden;points=[[0,0.5],[1,0.5]];portConstraint=eastwest;rotatable=0;whiteSpace=wrap;html=1;" parent="MLTy6W-7F-OALNMRYZay-20" vertex="1">
          <mxGeometry y="30" width="370" height="30" as="geometry" />
        </mxCell>
        <mxCell id="MLTy6W-7F-OALNMRYZay-22" value="&lt;div&gt;- _pressedTime : float&lt;/div&gt;" style="text;strokeColor=none;fillColor=none;align=left;verticalAlign=middle;spacingLeft=4;spacingRight=4;overflow=hidden;points=[[0,0.5],[1,0.5]];portConstraint=eastwest;rotatable=0;whiteSpace=wrap;html=1;" parent="MLTy6W-7F-OALNMRYZay-20" vertex="1">
          <mxGeometry y="60" width="370" height="30" as="geometry" />
        </mxCell>
        <mxCell id="MLTy6W-7F-OALNMRYZay-23" value="+ MouseAction :&amp;nbsp; Action&amp;nbsp;" style="text;strokeColor=none;fillColor=none;align=left;verticalAlign=middle;spacingLeft=4;spacingRight=4;overflow=hidden;points=[[0,0.5],[1,0.5]];portConstraint=eastwest;rotatable=0;whiteSpace=wrap;html=1;" parent="MLTy6W-7F-OALNMRYZay-20" vertex="1">
          <mxGeometry y="90" width="370" height="40" as="geometry" />
        </mxCell>
        <mxCell id="MLTy6W-7F-OALNMRYZay-24" value="" style="endArrow=none;html=1;rounded=0;exitX=0.009;exitY=-0.01;exitDx=0;exitDy=0;exitPerimeter=0;entryX=0.991;entryY=0.015;entryDx=0;entryDy=0;entryPerimeter=0;" parent="MLTy6W-7F-OALNMRYZay-20" source="MLTy6W-7F-OALNMRYZay-23" target="MLTy6W-7F-OALNMRYZay-23" edge="1">
          <mxGeometry width="50" height="50" relative="1" as="geometry">
            <mxPoint x="110" y="60" as="sourcePoint" />
            <mxPoint x="226" y="120" as="targetPoint" />
            <Array as="points" />
          </mxGeometry>
        </mxCell>
        <mxCell id="MLTy6W-7F-OALNMRYZay-25" value="+ OnUpdate() : void" style="text;strokeColor=none;fillColor=none;align=left;verticalAlign=middle;spacingLeft=4;spacingRight=4;overflow=hidden;points=[[0,0.5],[1,0.5]];portConstraint=eastwest;rotatable=0;whiteSpace=wrap;html=1;" parent="MLTy6W-7F-OALNMRYZay-20" vertex="1">
          <mxGeometry y="130" width="370" height="40" as="geometry" />
        </mxCell>
        <mxCell id="MLTy6W-7F-OALNMRYZay-26" value="+ Clear() : void&amp;nbsp;" style="text;strokeColor=none;fillColor=none;align=left;verticalAlign=middle;spacingLeft=4;spacingRight=4;overflow=hidden;points=[[0,0.5],[1,0.5]];portConstraint=eastwest;rotatable=0;whiteSpace=wrap;html=1;" parent="MLTy6W-7F-OALNMRYZay-20" vertex="1">
          <mxGeometry y="170" width="370" height="40" as="geometry" />
        </mxCell>
        <mxCell id="MLTy6W-7F-OALNMRYZay-27" value="UIManager" style="swimlane;fontStyle=0;childLayout=stackLayout;horizontal=1;startSize=30;horizontalStack=0;resizeParent=1;resizeParentMax=0;resizeLast=0;collapsible=1;marginBottom=0;whiteSpace=wrap;html=1;fontSize=12;" parent="1" vertex="1" collapsed="1">
          <mxGeometry x="100" y="-2384.5" width="70" height="30" as="geometry">
            <mxRectangle x="310" y="-2268" width="530" height="490" as="alternateBounds" />
          </mxGeometry>
        </mxCell>
        <mxCell id="MLTy6W-7F-OALNMRYZay-28" value="&lt;div&gt;&lt;/div&gt;- popupStack : Stack&amp;lt;UI_Popup&amp;gt;" style="text;strokeColor=none;fillColor=none;align=left;verticalAlign=middle;spacingLeft=4;spacingRight=4;overflow=hidden;points=[[0,0.5],[1,0.5]];portConstraint=eastwest;rotatable=0;whiteSpace=wrap;html=1;" parent="MLTy6W-7F-OALNMRYZay-27" vertex="1">
          <mxGeometry y="30" width="530" height="30" as="geometry" />
        </mxCell>
        <mxCell id="MLTy6W-7F-OALNMRYZay-29" value="-&amp;nbsp;_sceneUI : UI_Scene" style="text;strokeColor=none;fillColor=none;align=left;verticalAlign=middle;spacingLeft=4;spacingRight=4;overflow=hidden;points=[[0,0.5],[1,0.5]];portConstraint=eastwest;rotatable=0;whiteSpace=wrap;html=1;" parent="MLTy6W-7F-OALNMRYZay-27" vertex="1">
          <mxGeometry y="60" width="530" height="30" as="geometry" />
        </mxCell>
        <mxCell id="MLTy6W-7F-OALNMRYZay-30" value="" style="endArrow=none;html=1;rounded=0;exitX=0.009;exitY=-0.01;exitDx=0;exitDy=0;exitPerimeter=0;entryX=0.991;entryY=0.015;entryDx=0;entryDy=0;entryPerimeter=0;" parent="MLTy6W-7F-OALNMRYZay-27" source="MLTy6W-7F-OALNMRYZay-31" target="MLTy6W-7F-OALNMRYZay-31" edge="1">
          <mxGeometry width="50" height="50" relative="1" as="geometry">
            <mxPoint x="110" y="60" as="sourcePoint" />
            <mxPoint x="226" y="120" as="targetPoint" />
            <Array as="points" />
          </mxGeometry>
        </mxCell>
        <mxCell id="MLTy6W-7F-OALNMRYZay-31" value="+ Root() : GameObject&amp;nbsp;" style="text;strokeColor=none;fillColor=none;align=left;verticalAlign=middle;spacingLeft=4;spacingRight=4;overflow=hidden;points=[[0,0.5],[1,0.5]];portConstraint=eastwest;rotatable=0;whiteSpace=wrap;html=1;" parent="MLTy6W-7F-OALNMRYZay-27" vertex="1">
          <mxGeometry y="90" width="530" height="40" as="geometry" />
        </mxCell>
        <mxCell id="MLTy6W-7F-OALNMRYZay-32" value="+ SetCanvas(GameObject, bool) : void&amp;nbsp;" style="text;strokeColor=none;fillColor=none;align=left;verticalAlign=middle;spacingLeft=4;spacingRight=4;overflow=hidden;points=[[0,0.5],[1,0.5]];portConstraint=eastwest;rotatable=0;whiteSpace=wrap;html=1;" parent="MLTy6W-7F-OALNMRYZay-27" vertex="1">
          <mxGeometry y="130" width="530" height="40" as="geometry" />
        </mxCell>
        <mxCell id="MLTy6W-7F-OALNMRYZay-33" value="&lt;div&gt;+ MakeWorldSpaceUI&amp;lt;T&amp;gt;(Transform, string) : T&lt;/div&gt;&lt;div&gt; &lt;/div&gt;" style="text;strokeColor=none;fillColor=none;align=left;verticalAlign=middle;spacingLeft=4;spacingRight=4;overflow=hidden;points=[[0,0.5],[1,0.5]];portConstraint=eastwest;rotatable=0;whiteSpace=wrap;html=1;" parent="MLTy6W-7F-OALNMRYZay-27" vertex="1">
          <mxGeometry y="170" width="530" height="40" as="geometry" />
        </mxCell>
        <mxCell id="MLTy6W-7F-OALNMRYZay-34" value="&lt;div&gt;+ MakeSubItem&amp;lt;T&amp;gt;(Transform, string name) : T&lt;/div&gt;&lt;div&gt; &lt;/div&gt;" style="text;strokeColor=none;fillColor=none;align=left;verticalAlign=middle;spacingLeft=4;spacingRight=4;overflow=hidden;points=[[0,0.5],[1,0.5]];portConstraint=eastwest;rotatable=0;whiteSpace=wrap;html=1;" parent="MLTy6W-7F-OALNMRYZay-27" vertex="1">
          <mxGeometry y="210" width="530" height="40" as="geometry" />
        </mxCell>
        <mxCell id="MLTy6W-7F-OALNMRYZay-35" value="&lt;div&gt;+ ShowSceneUI&amp;lt;T&amp;gt;(string) : T&lt;/div&gt;&lt;div&gt; &lt;/div&gt;" style="text;strokeColor=none;fillColor=none;align=left;verticalAlign=middle;spacingLeft=4;spacingRight=4;overflow=hidden;points=[[0,0.5],[1,0.5]];portConstraint=eastwest;rotatable=0;whiteSpace=wrap;html=1;" parent="MLTy6W-7F-OALNMRYZay-27" vertex="1">
          <mxGeometry y="250" width="530" height="40" as="geometry" />
        </mxCell>
        <mxCell id="MLTy6W-7F-OALNMRYZay-36" value="&lt;div&gt;+ ShowPopupUI&amp;lt;T&amp;gt;(string) :T&lt;/div&gt;&lt;div&gt; &lt;/div&gt;" style="text;strokeColor=none;fillColor=none;align=left;verticalAlign=middle;spacingLeft=4;spacingRight=4;overflow=hidden;points=[[0,0.5],[1,0.5]];portConstraint=eastwest;rotatable=0;whiteSpace=wrap;html=1;" parent="MLTy6W-7F-OALNMRYZay-27" vertex="1">
          <mxGeometry y="290" width="530" height="40" as="geometry" />
        </mxCell>
        <mxCell id="MLTy6W-7F-OALNMRYZay-37" value="&lt;div&gt;+ ClosePopupUI(UI_Popup) : void&lt;/div&gt;&lt;div&gt; &lt;/div&gt;" style="text;strokeColor=none;fillColor=none;align=left;verticalAlign=middle;spacingLeft=4;spacingRight=4;overflow=hidden;points=[[0,0.5],[1,0.5]];portConstraint=eastwest;rotatable=0;whiteSpace=wrap;html=1;" parent="MLTy6W-7F-OALNMRYZay-27" vertex="1">
          <mxGeometry y="330" width="530" height="40" as="geometry" />
        </mxCell>
        <mxCell id="MLTy6W-7F-OALNMRYZay-38" value="&lt;div&gt;+ ClosePopupUI() : void&lt;/div&gt;&lt;div&gt; &lt;/div&gt;" style="text;strokeColor=none;fillColor=none;align=left;verticalAlign=middle;spacingLeft=4;spacingRight=4;overflow=hidden;points=[[0,0.5],[1,0.5]];portConstraint=eastwest;rotatable=0;whiteSpace=wrap;html=1;" parent="MLTy6W-7F-OALNMRYZay-27" vertex="1">
          <mxGeometry y="370" width="530" height="40" as="geometry" />
        </mxCell>
        <mxCell id="MLTy6W-7F-OALNMRYZay-39" value="&lt;div&gt;+ CloseAllPopupUI() : void&lt;/div&gt;&lt;div&gt; &lt;/div&gt;" style="text;strokeColor=none;fillColor=none;align=left;verticalAlign=middle;spacingLeft=4;spacingRight=4;overflow=hidden;points=[[0,0.5],[1,0.5]];portConstraint=eastwest;rotatable=0;whiteSpace=wrap;html=1;" parent="MLTy6W-7F-OALNMRYZay-27" vertex="1">
          <mxGeometry y="410" width="530" height="40" as="geometry" />
        </mxCell>
        <mxCell id="MLTy6W-7F-OALNMRYZay-40" value="&lt;div&gt;+ Clear() :void&lt;/div&gt;&lt;div&gt; &lt;/div&gt;" style="text;strokeColor=none;fillColor=none;align=left;verticalAlign=middle;spacingLeft=4;spacingRight=4;overflow=hidden;points=[[0,0.5],[1,0.5]];portConstraint=eastwest;rotatable=0;whiteSpace=wrap;html=1;" parent="MLTy6W-7F-OALNMRYZay-27" vertex="1">
          <mxGeometry y="450" width="530" height="40" as="geometry" />
        </mxCell>
        <mxCell id="MLTy6W-7F-OALNMRYZay-55" value="https://www.nextree.co.kr/p6753/&lt;br&gt;&lt;br&gt;Code Convention&amp;nbsp;&lt;br&gt;&lt;br&gt;private 변수 앞에 _(언더바)&lt;br&gt;클래스 시작 대문자&lt;br&gt;함수 시작 대문자&lt;br&gt;readonly 전부 대문자&amp;nbsp;&lt;br&gt;" style="text;strokeColor=none;fillColor=none;align=left;verticalAlign=middle;spacingLeft=4;spacingRight=4;overflow=hidden;points=[[0,0.5],[1,0.5]];portConstraint=eastwest;rotatable=0;whiteSpace=wrap;html=1;" parent="1" vertex="1">
          <mxGeometry x="-440" y="-2624.5" width="200" height="120" as="geometry" />
        </mxCell>
        <mxCell id="MLTy6W-7F-OALNMRYZay-56" value="" style="endArrow=diamondThin;endFill=1;endSize=24;html=1;rounded=0;entryX=1;entryY=0.5;entryDx=0;entryDy=0;exitX=-0.011;exitY=0.034;exitDx=0;exitDy=0;exitPerimeter=0;" parent="1" source="MLTy6W-7F-OALNMRYZay-12" target="MLTy6W-7F-OALNMRYZay-6" edge="1">
          <mxGeometry width="160" relative="1" as="geometry">
            <mxPoint x="350" y="-2160" as="sourcePoint" />
            <mxPoint x="510" y="-2160" as="targetPoint" />
          </mxGeometry>
        </mxCell>
        <mxCell id="MLTy6W-7F-OALNMRYZay-57" value="" style="endArrow=diamondThin;endFill=1;endSize=24;html=1;rounded=0;entryX=1;entryY=0.5;entryDx=0;entryDy=0;exitX=0;exitY=0.25;exitDx=0;exitDy=0;" parent="1" source="MLTy6W-7F-OALNMRYZay-20" target="MLTy6W-7F-OALNMRYZay-9" edge="1">
          <mxGeometry width="160" relative="1" as="geometry">
            <mxPoint x="396" y="-2351" as="sourcePoint" />
            <mxPoint x="270" y="-2185" as="targetPoint" />
          </mxGeometry>
        </mxCell>
        <mxCell id="MLTy6W-7F-OALNMRYZay-58" value="" style="endArrow=diamondThin;endFill=1;endSize=24;html=1;rounded=0;entryX=1;entryY=0.5;entryDx=0;entryDy=0;exitX=-0.001;exitY=0.031;exitDx=0;exitDy=0;exitPerimeter=0;" parent="1" source="MLTy6W-7F-OALNMRYZay-27" target="MLTy6W-7F-OALNMRYZay-10" edge="1">
          <mxGeometry width="160" relative="1" as="geometry">
            <mxPoint x="380" y="-2030" as="sourcePoint" />
            <mxPoint x="280" y="-2175" as="targetPoint" />
          </mxGeometry>
        </mxCell>
        <mxCell id="MLTy6W-7F-OALNMRYZay-59" value="«abstract»&lt;br&gt;UI_Popup" style="swimlane;fontStyle=0;childLayout=stackLayout;horizontal=1;startSize=30;horizontalStack=0;resizeParent=1;resizeParentMax=0;resizeLast=0;collapsible=1;marginBottom=0;whiteSpace=wrap;html=1;fontSize=12;" parent="1" vertex="1" collapsed="1">
          <mxGeometry x="220" y="-2338" width="60" height="30" as="geometry">
            <mxRectangle x="930" y="-2150" width="530" height="490" as="alternateBounds" />
          </mxGeometry>
        </mxCell>
        <mxCell id="MLTy6W-7F-OALNMRYZay-60" value="&lt;div&gt;&lt;/div&gt;- popupStack : Stack&amp;lt;UI_Popup&amp;gt;" style="text;strokeColor=none;fillColor=none;align=left;verticalAlign=middle;spacingLeft=4;spacingRight=4;overflow=hidden;points=[[0,0.5],[1,0.5]];portConstraint=eastwest;rotatable=0;whiteSpace=wrap;html=1;" parent="MLTy6W-7F-OALNMRYZay-59" vertex="1">
          <mxGeometry y="30" width="530" height="30" as="geometry" />
        </mxCell>
        <mxCell id="MLTy6W-7F-OALNMRYZay-61" value="-&amp;nbsp;_sceneUI : UI_Scene" style="text;strokeColor=none;fillColor=none;align=left;verticalAlign=middle;spacingLeft=4;spacingRight=4;overflow=hidden;points=[[0,0.5],[1,0.5]];portConstraint=eastwest;rotatable=0;whiteSpace=wrap;html=1;" parent="MLTy6W-7F-OALNMRYZay-59" vertex="1">
          <mxGeometry y="60" width="530" height="30" as="geometry" />
        </mxCell>
        <mxCell id="MLTy6W-7F-OALNMRYZay-62" value="" style="endArrow=none;html=1;rounded=0;exitX=0.009;exitY=-0.01;exitDx=0;exitDy=0;exitPerimeter=0;entryX=0.991;entryY=0.015;entryDx=0;entryDy=0;entryPerimeter=0;" parent="MLTy6W-7F-OALNMRYZay-59" source="MLTy6W-7F-OALNMRYZay-63" target="MLTy6W-7F-OALNMRYZay-63" edge="1">
          <mxGeometry width="50" height="50" relative="1" as="geometry">
            <mxPoint x="110" y="60" as="sourcePoint" />
            <mxPoint x="226" y="120" as="targetPoint" />
            <Array as="points" />
          </mxGeometry>
        </mxCell>
        <mxCell id="MLTy6W-7F-OALNMRYZay-63" value="+ Root() : GameObject&amp;nbsp;" style="text;strokeColor=none;fillColor=none;align=left;verticalAlign=middle;spacingLeft=4;spacingRight=4;overflow=hidden;points=[[0,0.5],[1,0.5]];portConstraint=eastwest;rotatable=0;whiteSpace=wrap;html=1;" parent="MLTy6W-7F-OALNMRYZay-59" vertex="1">
          <mxGeometry y="90" width="530" height="40" as="geometry" />
        </mxCell>
        <mxCell id="MLTy6W-7F-OALNMRYZay-64" value="+ SetCanvas(GameObject, bool) : void&amp;nbsp;" style="text;strokeColor=none;fillColor=none;align=left;verticalAlign=middle;spacingLeft=4;spacingRight=4;overflow=hidden;points=[[0,0.5],[1,0.5]];portConstraint=eastwest;rotatable=0;whiteSpace=wrap;html=1;" parent="MLTy6W-7F-OALNMRYZay-59" vertex="1">
          <mxGeometry y="130" width="530" height="40" as="geometry" />
        </mxCell>
        <mxCell id="MLTy6W-7F-OALNMRYZay-65" value="&lt;div&gt;+ MakeWorldSpaceUI&amp;lt;T&amp;gt;(Transform, string) : T&lt;/div&gt;&lt;div&gt; &lt;/div&gt;" style="text;strokeColor=none;fillColor=none;align=left;verticalAlign=middle;spacingLeft=4;spacingRight=4;overflow=hidden;points=[[0,0.5],[1,0.5]];portConstraint=eastwest;rotatable=0;whiteSpace=wrap;html=1;" parent="MLTy6W-7F-OALNMRYZay-59" vertex="1">
          <mxGeometry y="170" width="530" height="40" as="geometry" />
        </mxCell>
        <mxCell id="MLTy6W-7F-OALNMRYZay-66" value="&lt;div&gt;+ MakeSubItem&amp;lt;T&amp;gt;(Transform, string name) : T&lt;/div&gt;&lt;div&gt; &lt;/div&gt;" style="text;strokeColor=none;fillColor=none;align=left;verticalAlign=middle;spacingLeft=4;spacingRight=4;overflow=hidden;points=[[0,0.5],[1,0.5]];portConstraint=eastwest;rotatable=0;whiteSpace=wrap;html=1;" parent="MLTy6W-7F-OALNMRYZay-59" vertex="1">
          <mxGeometry y="210" width="530" height="40" as="geometry" />
        </mxCell>
        <mxCell id="MLTy6W-7F-OALNMRYZay-67" value="&lt;div&gt;+ ShowSceneUI&amp;lt;T&amp;gt;(string) : T&lt;/div&gt;&lt;div&gt; &lt;/div&gt;" style="text;strokeColor=none;fillColor=none;align=left;verticalAlign=middle;spacingLeft=4;spacingRight=4;overflow=hidden;points=[[0,0.5],[1,0.5]];portConstraint=eastwest;rotatable=0;whiteSpace=wrap;html=1;" parent="MLTy6W-7F-OALNMRYZay-59" vertex="1">
          <mxGeometry y="250" width="530" height="40" as="geometry" />
        </mxCell>
        <mxCell id="MLTy6W-7F-OALNMRYZay-68" value="&lt;div&gt;+ ShowPopupUI&amp;lt;T&amp;gt;(string) :T&lt;/div&gt;&lt;div&gt; &lt;/div&gt;" style="text;strokeColor=none;fillColor=none;align=left;verticalAlign=middle;spacingLeft=4;spacingRight=4;overflow=hidden;points=[[0,0.5],[1,0.5]];portConstraint=eastwest;rotatable=0;whiteSpace=wrap;html=1;" parent="MLTy6W-7F-OALNMRYZay-59" vertex="1">
          <mxGeometry y="290" width="530" height="40" as="geometry" />
        </mxCell>
        <mxCell id="MLTy6W-7F-OALNMRYZay-69" value="&lt;div&gt;+ ClosePopupUI(UI_Popup) : void&lt;/div&gt;&lt;div&gt; &lt;/div&gt;" style="text;strokeColor=none;fillColor=none;align=left;verticalAlign=middle;spacingLeft=4;spacingRight=4;overflow=hidden;points=[[0,0.5],[1,0.5]];portConstraint=eastwest;rotatable=0;whiteSpace=wrap;html=1;" parent="MLTy6W-7F-OALNMRYZay-59" vertex="1">
          <mxGeometry y="330" width="530" height="40" as="geometry" />
        </mxCell>
        <mxCell id="MLTy6W-7F-OALNMRYZay-70" value="&lt;div&gt;+ ClosePopupUI() : void&lt;/div&gt;&lt;div&gt; &lt;/div&gt;" style="text;strokeColor=none;fillColor=none;align=left;verticalAlign=middle;spacingLeft=4;spacingRight=4;overflow=hidden;points=[[0,0.5],[1,0.5]];portConstraint=eastwest;rotatable=0;whiteSpace=wrap;html=1;" parent="MLTy6W-7F-OALNMRYZay-59" vertex="1">
          <mxGeometry y="370" width="530" height="40" as="geometry" />
        </mxCell>
        <mxCell id="MLTy6W-7F-OALNMRYZay-71" value="&lt;div&gt;+ CloseAllPopupUI() : void&lt;/div&gt;&lt;div&gt; &lt;/div&gt;" style="text;strokeColor=none;fillColor=none;align=left;verticalAlign=middle;spacingLeft=4;spacingRight=4;overflow=hidden;points=[[0,0.5],[1,0.5]];portConstraint=eastwest;rotatable=0;whiteSpace=wrap;html=1;" parent="MLTy6W-7F-OALNMRYZay-59" vertex="1">
          <mxGeometry y="410" width="530" height="40" as="geometry" />
        </mxCell>
        <mxCell id="MLTy6W-7F-OALNMRYZay-72" value="&lt;div&gt;+ Clear() :void&lt;/div&gt;&lt;div&gt; &lt;/div&gt;" style="text;strokeColor=none;fillColor=none;align=left;verticalAlign=middle;spacingLeft=4;spacingRight=4;overflow=hidden;points=[[0,0.5],[1,0.5]];portConstraint=eastwest;rotatable=0;whiteSpace=wrap;html=1;" parent="MLTy6W-7F-OALNMRYZay-59" vertex="1">
          <mxGeometry y="450" width="530" height="40" as="geometry" />
        </mxCell>
        <mxCell id="MLTy6W-7F-OALNMRYZay-73" value="«abstract»&lt;br&gt;UI_Base" style="swimlane;fontStyle=0;childLayout=stackLayout;horizontal=1;startSize=30;horizontalStack=0;resizeParent=1;resizeParentMax=0;resizeLast=0;collapsible=1;marginBottom=0;whiteSpace=wrap;html=1;fontSize=12;" parent="1" vertex="1" collapsed="1">
          <mxGeometry x="320" y="-2250" width="60" height="30" as="geometry">
            <mxRectangle x="1530" y="-1991" width="530" height="330" as="alternateBounds" />
          </mxGeometry>
        </mxCell>
        <mxCell id="MLTy6W-7F-OALNMRYZay-74" value="&lt;div&gt;# _objects : Dictionary&amp;lt;Type, UnityEngine.Object[]&amp;gt;&lt;/div&gt;&lt;div&gt; &lt;/div&gt;&lt;div&gt;&lt;/div&gt;" style="text;strokeColor=none;fillColor=none;align=left;verticalAlign=middle;spacingLeft=4;spacingRight=4;overflow=hidden;points=[[0,0.5],[1,0.5]];portConstraint=eastwest;rotatable=0;whiteSpace=wrap;html=1;" parent="MLTy6W-7F-OALNMRYZay-73" vertex="1">
          <mxGeometry y="30" width="530" height="30" as="geometry" />
        </mxCell>
        <mxCell id="MLTy6W-7F-OALNMRYZay-75" value="-&amp;nbsp;_sceneUI : UI_Scene" style="text;strokeColor=none;fillColor=none;align=left;verticalAlign=middle;spacingLeft=4;spacingRight=4;overflow=hidden;points=[[0,0.5],[1,0.5]];portConstraint=eastwest;rotatable=0;whiteSpace=wrap;html=1;" parent="MLTy6W-7F-OALNMRYZay-73" vertex="1">
          <mxGeometry y="60" width="530" height="30" as="geometry" />
        </mxCell>
        <mxCell id="MLTy6W-7F-OALNMRYZay-76" value="" style="endArrow=none;html=1;rounded=0;exitX=0.009;exitY=-0.01;exitDx=0;exitDy=0;exitPerimeter=0;entryX=0.991;entryY=0.015;entryDx=0;entryDy=0;entryPerimeter=0;" parent="MLTy6W-7F-OALNMRYZay-73" source="MLTy6W-7F-OALNMRYZay-77" target="MLTy6W-7F-OALNMRYZay-77" edge="1">
          <mxGeometry width="50" height="50" relative="1" as="geometry">
            <mxPoint x="110" y="60" as="sourcePoint" />
            <mxPoint x="226" y="120" as="targetPoint" />
            <Array as="points" />
          </mxGeometry>
        </mxCell>
        <mxCell id="MLTy6W-7F-OALNMRYZay-77" value="- Start : void" style="text;strokeColor=none;fillColor=none;align=left;verticalAlign=middle;spacingLeft=4;spacingRight=4;overflow=hidden;points=[[0,0.5],[1,0.5]];portConstraint=eastwest;rotatable=0;whiteSpace=wrap;html=1;" parent="MLTy6W-7F-OALNMRYZay-73" vertex="1">
          <mxGeometry y="90" width="530" height="40" as="geometry" />
        </mxCell>
        <mxCell id="MLTy6W-7F-OALNMRYZay-78" value="+ Init() : void" style="text;strokeColor=none;fillColor=none;align=left;verticalAlign=middle;spacingLeft=4;spacingRight=4;overflow=hidden;points=[[0,0.5],[1,0.5]];portConstraint=eastwest;rotatable=0;whiteSpace=wrap;html=1;" parent="MLTy6W-7F-OALNMRYZay-73" vertex="1">
          <mxGeometry y="130" width="530" height="40" as="geometry" />
        </mxCell>
        <mxCell id="MLTy6W-7F-OALNMRYZay-79" value="# Bind&amp;lt;T&amp;gt; (Type) : void" style="text;strokeColor=none;fillColor=none;align=left;verticalAlign=middle;spacingLeft=4;spacingRight=4;overflow=hidden;points=[[0,0.5],[1,0.5]];portConstraint=eastwest;rotatable=0;whiteSpace=wrap;html=1;" parent="MLTy6W-7F-OALNMRYZay-73" vertex="1">
          <mxGeometry y="170" width="530" height="40" as="geometry" />
        </mxCell>
        <mxCell id="MLTy6W-7F-OALNMRYZay-80" value="# Get&amp;lt;T&amp;gt; (int) : T" style="text;strokeColor=none;fillColor=none;align=left;verticalAlign=middle;spacingLeft=4;spacingRight=4;overflow=hidden;points=[[0,0.5],[1,0.5]];portConstraint=eastwest;rotatable=0;whiteSpace=wrap;html=1;" parent="MLTy6W-7F-OALNMRYZay-73" vertex="1">
          <mxGeometry y="210" width="530" height="40" as="geometry" />
        </mxCell>
        <mxCell id="MLTy6W-7F-OALNMRYZay-81" value="/// Get //// Text button ... 시리즈는 여기 쓸건 아닌가?" style="text;strokeColor=none;fillColor=none;align=left;verticalAlign=middle;spacingLeft=4;spacingRight=4;overflow=hidden;points=[[0,0.5],[1,0.5]];portConstraint=eastwest;rotatable=0;whiteSpace=wrap;html=1;" parent="MLTy6W-7F-OALNMRYZay-73" vertex="1">
          <mxGeometry y="250" width="530" height="40" as="geometry" />
        </mxCell>
        <mxCell id="MLTy6W-7F-OALNMRYZay-82" value="+ BindEvent(GameObject, Action, Define.UIEvent)" style="text;strokeColor=none;fillColor=none;align=left;verticalAlign=middle;spacingLeft=4;spacingRight=4;overflow=hidden;points=[[0,0.5],[1,0.5]];portConstraint=eastwest;rotatable=0;whiteSpace=wrap;html=1;" parent="MLTy6W-7F-OALNMRYZay-73" vertex="1">
          <mxGeometry y="290" width="530" height="40" as="geometry" />
        </mxCell>
        <mxCell id="MLTy6W-7F-OALNMRYZay-83" value="MonoBehaviour" style="swimlane;fontStyle=1;align=center;verticalAlign=top;childLayout=stackLayout;horizontal=1;startSize=26;horizontalStack=0;resizeParent=1;resizeParentMax=0;resizeLast=0;collapsible=1;marginBottom=0;whiteSpace=wrap;html=1;" parent="1" vertex="1">
          <mxGeometry x="490" y="-2120" width="160" height="34" as="geometry" />
        </mxCell>
        <mxCell id="MLTy6W-7F-OALNMRYZay-84" value="" style="line;strokeWidth=1;fillColor=none;align=left;verticalAlign=middle;spacingTop=-1;spacingLeft=3;spacingRight=3;rotatable=0;labelPosition=right;points=[];portConstraint=eastwest;strokeColor=inherit;" parent="MLTy6W-7F-OALNMRYZay-83" vertex="1">
          <mxGeometry y="26" width="160" height="8" as="geometry" />
        </mxCell>
        <mxCell id="MLTy6W-7F-OALNMRYZay-85" value="" style="endArrow=none;html=1;edgeStyle=orthogonalEdgeStyle;rounded=0;exitX=0;exitY=0;exitDx=0;exitDy=0;entryX=1;entryY=0;entryDx=0;entryDy=0;" parent="1" source="MLTy6W-7F-OALNMRYZay-83" target="MLTy6W-7F-OALNMRYZay-73" edge="1">
          <mxGeometry relative="1" as="geometry">
            <mxPoint x="1550" y="-1580" as="sourcePoint" />
            <mxPoint x="1710" y="-1580" as="targetPoint" />
            <Array as="points">
              <mxPoint x="460" y="-2120" />
              <mxPoint x="460" y="-2210" />
              <mxPoint x="380" y="-2210" />
            </Array>
          </mxGeometry>
        </mxCell>
        <mxCell id="MLTy6W-7F-OALNMRYZay-86" value="parent" style="edgeLabel;resizable=0;html=1;align=left;verticalAlign=bottom;" parent="MLTy6W-7F-OALNMRYZay-85" connectable="0" vertex="1">
          <mxGeometry x="-1" relative="1" as="geometry" />
        </mxCell>
        <mxCell id="MLTy6W-7F-OALNMRYZay-87" value="child" style="edgeLabel;resizable=0;html=1;align=right;verticalAlign=bottom;" parent="MLTy6W-7F-OALNMRYZay-85" connectable="0" vertex="1">
          <mxGeometry x="1" relative="1" as="geometry" />
        </mxCell>
        <mxCell id="MLTy6W-7F-OALNMRYZay-88" value="" style="endArrow=none;html=1;edgeStyle=orthogonalEdgeStyle;rounded=0;entryX=1;entryY=0;entryDx=0;entryDy=0;exitX=0;exitY=0;exitDx=0;exitDy=0;" parent="1" source="MLTy6W-7F-OALNMRYZay-73" target="MLTy6W-7F-OALNMRYZay-59" edge="1">
          <mxGeometry relative="1" as="geometry">
            <mxPoint x="1550" y="-2160" as="sourcePoint" />
            <mxPoint x="1380" y="-1680" as="targetPoint" />
            <Array as="points">
              <mxPoint x="300" y="-2250" />
              <mxPoint x="300" y="-2290" />
              <mxPoint x="250" y="-2290" />
            </Array>
          </mxGeometry>
        </mxCell>
        <mxCell id="MLTy6W-7F-OALNMRYZay-89" value="parent" style="edgeLabel;resizable=0;html=1;align=left;verticalAlign=bottom;" parent="MLTy6W-7F-OALNMRYZay-88" connectable="0" vertex="1">
          <mxGeometry x="-1" relative="1" as="geometry" />
        </mxCell>
        <mxCell id="MLTy6W-7F-OALNMRYZay-90" value="child" style="edgeLabel;resizable=0;html=1;align=right;verticalAlign=bottom;" parent="MLTy6W-7F-OALNMRYZay-88" connectable="0" vertex="1">
          <mxGeometry x="1" relative="1" as="geometry" />
        </mxCell>
        <mxCell id="MLTy6W-7F-OALNMRYZay-93" value="" style="endArrow=none;html=1;edgeStyle=orthogonalEdgeStyle;rounded=0;exitX=-0.002;exitY=0.118;exitDx=0;exitDy=0;exitPerimeter=0;entryX=1;entryY=0;entryDx=0;entryDy=0;" parent="1" source="MLTy6W-7F-OALNMRYZay-73" edge="1">
          <mxGeometry relative="1" as="geometry">
            <mxPoint x="1080" y="-1190" as="sourcePoint" />
            <mxPoint x="280" y="-2260" as="targetPoint" />
            <Array as="points">
              <mxPoint x="300" y="-2247" />
              <mxPoint x="300" y="-2270" />
            </Array>
          </mxGeometry>
        </mxCell>
        <mxCell id="MLTy6W-7F-OALNMRYZay-94" value="parent" style="edgeLabel;resizable=0;html=1;align=left;verticalAlign=bottom;" parent="MLTy6W-7F-OALNMRYZay-93" connectable="0" vertex="1">
          <mxGeometry x="-1" relative="1" as="geometry" />
        </mxCell>
        <mxCell id="MLTy6W-7F-OALNMRYZay-95" value="child" style="edgeLabel;resizable=0;html=1;align=right;verticalAlign=bottom;" parent="MLTy6W-7F-OALNMRYZay-93" connectable="0" vertex="1">
          <mxGeometry x="1" relative="1" as="geometry" />
        </mxCell>
        <mxCell id="MLTy6W-7F-OALNMRYZay-96" value="UI_EventHandler" style="swimlane;fontStyle=0;childLayout=stackLayout;horizontal=1;startSize=30;horizontalStack=0;resizeParent=1;resizeParentMax=0;resizeLast=0;collapsible=1;marginBottom=0;whiteSpace=wrap;html=1;fontSize=12;" parent="1" vertex="1" collapsed="1">
          <mxGeometry x="-50" y="-2050" width="60" height="30" as="geometry">
            <mxRectangle x="-500" y="-2060" width="531.06" height="170" as="alternateBounds" />
          </mxGeometry>
        </mxCell>
        <mxCell id="MLTy6W-7F-OALNMRYZay-97" value="&lt;div&gt;+ OnClickHandler : Action&amp;lt;PointerEventData&amp;gt;&lt;/div&gt;&lt;div&gt; &lt;/div&gt;&lt;div&gt;&lt;/div&gt;" style="text;strokeColor=none;fillColor=none;align=left;verticalAlign=middle;spacingLeft=4;spacingRight=4;overflow=hidden;points=[[0,0.5],[1,0.5]];portConstraint=eastwest;rotatable=0;whiteSpace=wrap;html=1;" parent="MLTy6W-7F-OALNMRYZay-96" vertex="1">
          <mxGeometry y="30" width="531.06" height="30" as="geometry" />
        </mxCell>
        <mxCell id="MLTy6W-7F-OALNMRYZay-98" value="+ OnDragHandler : Action&amp;lt;PointerEventData&amp;gt;" style="text;strokeColor=none;fillColor=none;align=left;verticalAlign=middle;spacingLeft=4;spacingRight=4;overflow=hidden;points=[[0,0.5],[1,0.5]];portConstraint=eastwest;rotatable=0;whiteSpace=wrap;html=1;" parent="MLTy6W-7F-OALNMRYZay-96" vertex="1">
          <mxGeometry y="60" width="531.06" height="30" as="geometry" />
        </mxCell>
        <mxCell id="MLTy6W-7F-OALNMRYZay-99" value="" style="endArrow=none;html=1;rounded=0;exitX=0.009;exitY=-0.01;exitDx=0;exitDy=0;exitPerimeter=0;entryX=0.991;entryY=0.015;entryDx=0;entryDy=0;entryPerimeter=0;" parent="MLTy6W-7F-OALNMRYZay-96" edge="1">
          <mxGeometry width="50" height="50" relative="1" as="geometry">
            <mxPoint x="4.769999999999982" y="89.59999999999991" as="sourcePoint" />
            <mxPoint x="525.2299999999996" y="90.59999999999991" as="targetPoint" />
            <Array as="points" />
          </mxGeometry>
        </mxCell>
        <mxCell id="MLTy6W-7F-OALNMRYZay-100" value="+ OnPointerClick(PointerEventData) : void" style="text;strokeColor=none;fillColor=none;align=left;verticalAlign=middle;spacingLeft=4;spacingRight=4;overflow=hidden;points=[[0,0.5],[1,0.5]];portConstraint=eastwest;rotatable=0;whiteSpace=wrap;html=1;" parent="MLTy6W-7F-OALNMRYZay-96" vertex="1">
          <mxGeometry y="90" width="531.06" height="40" as="geometry" />
        </mxCell>
        <mxCell id="MLTy6W-7F-OALNMRYZay-101" value="+ OnDrag(PointerEventData) : void" style="text;strokeColor=none;fillColor=none;align=left;verticalAlign=middle;spacingLeft=4;spacingRight=4;overflow=hidden;points=[[0,0.5],[1,0.5]];portConstraint=eastwest;rotatable=0;whiteSpace=wrap;html=1;" parent="MLTy6W-7F-OALNMRYZay-96" vertex="1">
          <mxGeometry y="130" width="531.06" height="40" as="geometry" />
        </mxCell>
        <mxCell id="MLTy6W-7F-OALNMRYZay-102" value="" style="endArrow=none;html=1;edgeStyle=orthogonalEdgeStyle;rounded=0;entryX=1;entryY=0;entryDx=0;entryDy=0;exitX=0;exitY=0.25;exitDx=0;exitDy=0;" parent="1" source="MLTy6W-7F-OALNMRYZay-83" target="MLTy6W-7F-OALNMRYZay-96" edge="1">
          <mxGeometry relative="1" as="geometry">
            <mxPoint x="2430" y="-1450" as="sourcePoint" />
            <mxPoint x="2240" y="-1160" as="targetPoint" />
            <Array as="points">
              <mxPoint x="490" y="-2103" />
              <mxPoint x="430" y="-2103" />
              <mxPoint x="430" y="-2090" />
              <mxPoint x="420" y="-2090" />
              <mxPoint x="420" y="-2060" />
            </Array>
          </mxGeometry>
        </mxCell>
        <mxCell id="MLTy6W-7F-OALNMRYZay-103" value="child" style="edgeLabel;resizable=0;html=1;align=right;verticalAlign=bottom;" parent="MLTy6W-7F-OALNMRYZay-102" connectable="0" vertex="1">
          <mxGeometry x="1" relative="1" as="geometry" />
        </mxCell>
        <mxCell id="MLTy6W-7F-OALNMRYZay-104" value="«interface»&lt;br&gt;&lt;b&gt;IPointerClickHandler&lt;/b&gt;" style="html=1;whiteSpace=wrap;" parent="1" vertex="1">
          <mxGeometry x="80" y="-2040" width="110" height="50" as="geometry" />
        </mxCell>
        <mxCell id="MLTy6W-7F-OALNMRYZay-105" value="«interface»&lt;br&gt;&lt;b&gt;IDragHandler&lt;/b&gt;" style="html=1;whiteSpace=wrap;" parent="1" vertex="1">
          <mxGeometry x="50" y="-1980" width="110" height="50" as="geometry" />
        </mxCell>
        <mxCell id="MLTy6W-7F-OALNMRYZay-106" value="" style="endArrow=none;html=1;edgeStyle=orthogonalEdgeStyle;rounded=0;exitX=0;exitY=0.25;exitDx=0;exitDy=0;entryX=1;entryY=0.25;entryDx=0;entryDy=0;" parent="1" source="MLTy6W-7F-OALNMRYZay-105" target="MLTy6W-7F-OALNMRYZay-96" edge="1">
          <mxGeometry relative="1" as="geometry">
            <mxPoint x="2620" y="-1230" as="sourcePoint" />
            <mxPoint x="2130" y="-1170" as="targetPoint" />
            <Array as="points">
              <mxPoint x="50" y="-2017" />
            </Array>
          </mxGeometry>
        </mxCell>
        <mxCell id="MLTy6W-7F-OALNMRYZay-107" value="parent" style="edgeLabel;resizable=0;html=1;align=left;verticalAlign=bottom;" parent="MLTy6W-7F-OALNMRYZay-106" connectable="0" vertex="1">
          <mxGeometry x="-1" relative="1" as="geometry" />
        </mxCell>
        <mxCell id="MLTy6W-7F-OALNMRYZay-108" value="" style="endArrow=none;html=1;edgeStyle=orthogonalEdgeStyle;rounded=0;exitX=0;exitY=0;exitDx=0;exitDy=0;entryX=1.002;entryY=0.047;entryDx=0;entryDy=0;entryPerimeter=0;" parent="1" source="MLTy6W-7F-OALNMRYZay-104" target="MLTy6W-7F-OALNMRYZay-96" edge="1">
          <mxGeometry relative="1" as="geometry">
            <mxPoint x="2250" y="-1047" as="sourcePoint" />
            <mxPoint x="2130" y="-1130" as="targetPoint" />
            <Array as="points">
              <mxPoint x="80" y="-2040" />
              <mxPoint x="80" y="-2052" />
            </Array>
          </mxGeometry>
        </mxCell>
        <mxCell id="MLTy6W-7F-OALNMRYZay-109" value="parent" style="edgeLabel;resizable=0;html=1;align=left;verticalAlign=bottom;" parent="MLTy6W-7F-OALNMRYZay-108" connectable="0" vertex="1">
          <mxGeometry x="-1" relative="1" as="geometry" />
        </mxCell>
        <mxCell id="MLTy6W-7F-OALNMRYZay-110" value="«utility»&lt;br style=&quot;border-color: var(--border-color);&quot;&gt;&lt;b style=&quot;border-color: var(--border-color);&quot;&gt;Util&lt;/b&gt;" style="swimlane;fontStyle=0;childLayout=stackLayout;horizontal=1;startSize=26;fillColor=none;horizontalStack=0;resizeParent=1;resizeParentMax=0;resizeLast=0;collapsible=1;marginBottom=0;whiteSpace=wrap;html=1;" parent="1" vertex="1" collapsed="1">
          <mxGeometry x="530" y="-2345" width="80" height="40" as="geometry">
            <mxRectangle x="1560" y="-1140" width="410" height="78" as="alternateBounds" />
          </mxGeometry>
        </mxCell>
        <mxCell id="MLTy6W-7F-OALNMRYZay-111" value="+&amp;nbsp;GetOrAddComponent&amp;lt;T&amp;gt;(GameObject) : T" style="text;strokeColor=none;fillColor=none;align=left;verticalAlign=top;spacingLeft=4;spacingRight=4;overflow=hidden;rotatable=0;points=[[0,0.5],[1,0.5]];portConstraint=eastwest;whiteSpace=wrap;html=1;" parent="MLTy6W-7F-OALNMRYZay-110" vertex="1">
          <mxGeometry y="26" width="410" height="26" as="geometry" />
        </mxCell>
        <mxCell id="MLTy6W-7F-OALNMRYZay-112" value="&amp;nbsp;+ FindChild&amp;lt;T&amp;gt;(GameObject, string, bool) : T&amp;nbsp;" style="text;strokeColor=none;fillColor=none;align=left;verticalAlign=top;spacingLeft=4;spacingRight=4;overflow=hidden;rotatable=0;points=[[0,0.5],[1,0.5]];portConstraint=eastwest;whiteSpace=wrap;html=1;" parent="MLTy6W-7F-OALNMRYZay-110" vertex="1">
          <mxGeometry y="52" width="410" height="26" as="geometry" />
        </mxCell>
        <mxCell id="MLTy6W-7F-OALNMRYZay-113" value="Use" style="endArrow=open;endSize=12;dashed=1;html=1;rounded=0;exitX=1.009;exitY=0.046;exitDx=0;exitDy=0;exitPerimeter=0;entryX=0;entryY=0.25;entryDx=0;entryDy=0;" parent="1" source="MLTy6W-7F-OALNMRYZay-27" target="MLTy6W-7F-OALNMRYZay-59" edge="1">
          <mxGeometry width="160" relative="1" as="geometry">
            <mxPoint x="610" y="-2140" as="sourcePoint" />
            <mxPoint x="770" y="-2140" as="targetPoint" />
          </mxGeometry>
        </mxCell>
        <mxCell id="MLTy6W-7F-OALNMRYZay-114" value="Use" style="endArrow=open;endSize=12;dashed=1;html=1;rounded=0;exitX=1;exitY=0.25;exitDx=0;exitDy=0;entryX=0;entryY=0;entryDx=0;entryDy=0;" parent="1" source="MLTy6W-7F-OALNMRYZay-27" edge="1">
          <mxGeometry width="160" relative="1" as="geometry">
            <mxPoint x="750" y="-1970" as="sourcePoint" />
            <mxPoint x="190" y="-2260" as="targetPoint" />
          </mxGeometry>
        </mxCell>
        <mxCell id="MLTy6W-7F-OALNMRYZay-116" value="PlayerController" style="swimlane;fontStyle=1;align=center;verticalAlign=top;childLayout=stackLayout;horizontal=1;startSize=26;horizontalStack=0;resizeParent=1;resizeParentMax=0;resizeLast=0;collapsible=1;marginBottom=0;whiteSpace=wrap;html=1;" parent="1" vertex="1" collapsed="1">
          <mxGeometry x="-290" y="-2320" width="240" height="180" as="geometry">
            <mxRectangle x="164" y="-1692" width="250" height="138" as="alternateBounds" />
          </mxGeometry>
        </mxCell>
        <mxCell id="MLTy6W-7F-OALNMRYZay-117" value="- _state : Define.CameraMode" style="text;strokeColor=none;fillColor=none;align=left;verticalAlign=top;spacingLeft=4;spacingRight=4;overflow=hidden;rotatable=0;points=[[0,0.5],[1,0.5]];portConstraint=eastwest;whiteSpace=wrap;html=1;" parent="MLTy6W-7F-OALNMRYZay-116" vertex="1">
          <mxGeometry y="26" width="250" height="26" as="geometry" />
        </mxCell>
        <mxCell id="MLTy6W-7F-OALNMRYZay-118" value="-&amp;nbsp;_delta : Vector3" style="text;strokeColor=none;fillColor=none;align=left;verticalAlign=top;spacingLeft=4;spacingRight=4;overflow=hidden;rotatable=0;points=[[0,0.5],[1,0.5]];portConstraint=eastwest;whiteSpace=wrap;html=1;" parent="MLTy6W-7F-OALNMRYZay-116" vertex="1">
          <mxGeometry y="52" width="250" height="26" as="geometry" />
        </mxCell>
        <mxCell id="MLTy6W-7F-OALNMRYZay-119" value="- _player : GameObject // 시점 고정인가?" style="text;strokeColor=none;fillColor=none;align=left;verticalAlign=top;spacingLeft=4;spacingRight=4;overflow=hidden;rotatable=0;points=[[0,0.5],[1,0.5]];portConstraint=eastwest;whiteSpace=wrap;html=1;" parent="MLTy6W-7F-OALNMRYZay-116" vertex="1">
          <mxGeometry y="78" width="250" height="26" as="geometry" />
        </mxCell>
        <mxCell id="MLTy6W-7F-OALNMRYZay-120" value="" style="line;strokeWidth=1;fillColor=none;align=left;verticalAlign=middle;spacingTop=-1;spacingLeft=3;spacingRight=3;rotatable=0;labelPosition=right;points=[];portConstraint=eastwest;strokeColor=inherit;" parent="MLTy6W-7F-OALNMRYZay-116" vertex="1">
          <mxGeometry y="104" width="250" height="8" as="geometry" />
        </mxCell>
        <mxCell id="MLTy6W-7F-OALNMRYZay-121" value="+ method(type): type" style="text;strokeColor=none;fillColor=none;align=left;verticalAlign=top;spacingLeft=4;spacingRight=4;overflow=hidden;rotatable=0;points=[[0,0.5],[1,0.5]];portConstraint=eastwest;whiteSpace=wrap;html=1;" parent="MLTy6W-7F-OALNMRYZay-116" vertex="1">
          <mxGeometry y="112" width="250" height="26" as="geometry" />
        </mxCell>
        <mxCell id="MLTy6W-7F-OALNMRYZay-142" value="" style="endArrow=none;html=1;edgeStyle=orthogonalEdgeStyle;rounded=0;exitX=0;exitY=0;exitDx=0;exitDy=0;entryX=1;entryY=0;entryDx=0;entryDy=0;" parent="1" edge="1">
          <mxGeometry relative="1" as="geometry">
            <mxPoint x="300" y="-2120" as="sourcePoint" />
            <mxPoint x="280" y="-2120" as="targetPoint" />
          </mxGeometry>
        </mxCell>
        <mxCell id="MLTy6W-7F-OALNMRYZay-143" value="parent" style="edgeLabel;resizable=0;html=1;align=left;verticalAlign=bottom;" parent="MLTy6W-7F-OALNMRYZay-142" connectable="0" vertex="1">
          <mxGeometry x="-1" relative="1" as="geometry" />
        </mxCell>
        <mxCell id="MLTy6W-7F-OALNMRYZay-144" value="child" style="edgeLabel;resizable=0;html=1;align=right;verticalAlign=bottom;" parent="MLTy6W-7F-OALNMRYZay-142" connectable="0" vertex="1">
          <mxGeometry x="1" relative="1" as="geometry" />
        </mxCell>
        <mxCell id="MLTy6W-7F-OALNMRYZay-151" value="Use" style="endArrow=open;endSize=12;dashed=1;html=1;rounded=0;exitX=1;exitY=0;exitDx=0;exitDy=0;entryX=0;entryY=0;entryDx=0;entryDy=0;" parent="1" source="MLTy6W-7F-OALNMRYZay-116" edge="1">
          <mxGeometry width="160" relative="1" as="geometry">
            <mxPoint x="340" y="-1510" as="sourcePoint" />
            <mxPoint x="-50" y="-2280" as="targetPoint" />
          </mxGeometry>
        </mxCell>
        <mxCell id="MLTy6W-7F-OALNMRYZay-152" value="Use" style="endArrow=open;endSize=12;dashed=1;html=1;rounded=0;exitX=1;exitY=0;exitDx=0;exitDy=0;entryX=0;entryY=0;entryDx=0;entryDy=0;" parent="1" edge="1">
          <mxGeometry width="160" relative="1" as="geometry">
            <mxPoint x="130" y="-2120" as="sourcePoint" />
            <mxPoint x="160" y="-2120" as="targetPoint" />
          </mxGeometry>
        </mxCell>
        <mxCell id="MLTy6W-7F-OALNMRYZay-159" value="«enumeration»&lt;br&gt;&lt;b&gt;Define&lt;/b&gt;" style="html=1;whiteSpace=wrap;" parent="1" vertex="1">
          <mxGeometry x="510" y="-2192" width="150" height="52" as="geometry" />
        </mxCell>
        <mxCell id="MLTy6W-7F-OALNMRYZay-160" value="Use" style="endArrow=open;endSize=12;dashed=1;html=1;rounded=0;exitX=1;exitY=0;exitDx=0;exitDy=0;entryX=0;entryY=0;entryDx=0;entryDy=0;" parent="1" target="MLTy6W-7F-OALNMRYZay-159" edge="1">
          <mxGeometry width="160" relative="1" as="geometry">
            <mxPoint x="200" y="-2280" as="sourcePoint" />
            <mxPoint x="610" y="-2220" as="targetPoint" />
          </mxGeometry>
        </mxCell>
        <mxCell id="MLTy6W-7F-OALNMRYZay-161" value="Use" style="endArrow=open;endSize=12;dashed=1;html=1;rounded=0;entryX=0;entryY=0.25;entryDx=0;entryDy=0;" parent="1" target="MLTy6W-7F-OALNMRYZay-159" edge="1">
          <mxGeometry width="160" relative="1" as="geometry">
            <mxPoint x="280" y="-2120" as="sourcePoint" />
            <mxPoint x="610" y="-2230" as="targetPoint" />
          </mxGeometry>
        </mxCell>
        <mxCell id="MLTy6W-7F-OALNMRYZay-162" value="Use" style="endArrow=open;endSize=12;dashed=1;html=1;rounded=0;entryX=0;entryY=0.25;entryDx=0;entryDy=0;exitX=1.003;exitY=0.149;exitDx=0;exitDy=0;exitPerimeter=0;" parent="1" source="MLTy6W-7F-OALNMRYZay-96" target="MLTy6W-7F-OALNMRYZay-159" edge="1">
          <mxGeometry width="160" relative="1" as="geometry">
            <mxPoint x="290" y="-2110" as="sourcePoint" />
            <mxPoint x="610" y="-2207" as="targetPoint" />
          </mxGeometry>
        </mxCell>
        <mxCell id="MLTy6W-7F-OALNMRYZay-163" value="Use" style="endArrow=open;endSize=12;dashed=1;html=1;rounded=0;entryX=0;entryY=0;entryDx=0;entryDy=0;exitX=1;exitY=0.25;exitDx=0;exitDy=0;" parent="1" source="MLTy6W-7F-OALNMRYZay-12" target="MLTy6W-7F-OALNMRYZay-159" edge="1">
          <mxGeometry width="160" relative="1" as="geometry">
            <mxPoint x="43" y="-2025" as="sourcePoint" />
            <mxPoint x="610" y="-2207" as="targetPoint" />
          </mxGeometry>
        </mxCell>
        <mxCell id="MLTy6W-7F-OALNMRYZay-165" value="Use" style="endArrow=open;endSize=12;dashed=1;html=1;rounded=0;entryX=0;entryY=0;entryDx=0;entryDy=0;exitX=1;exitY=0;exitDx=0;exitDy=0;" parent="1" source="MLTy6W-7F-OALNMRYZay-5" target="MLTy6W-7F-OALNMRYZay-159" edge="1">
          <mxGeometry width="160" relative="1" as="geometry">
            <mxPoint x="180" y="-2372" as="sourcePoint" />
            <mxPoint x="620" y="-2210" as="targetPoint" />
          </mxGeometry>
        </mxCell>
        <mxCell id="MLTy6W-7F-OALNMRYZay-170" value="Use" style="endArrow=open;endSize=12;dashed=1;html=1;rounded=0;exitX=1;exitY=0.25;exitDx=0;exitDy=0;entryX=0;entryY=0.25;entryDx=0;entryDy=0;" parent="1" edge="1">
          <mxGeometry width="160" relative="1" as="geometry">
            <mxPoint x="200" y="-2252" as="sourcePoint" />
            <mxPoint x="140" y="-2152.5" as="targetPoint" />
          </mxGeometry>
        </mxCell>
        <mxCell id="MLTy6W-7F-OALNMRYZay-171" value="" style="endArrow=none;html=1;edgeStyle=orthogonalEdgeStyle;rounded=0;entryX=1;entryY=0;entryDx=0;entryDy=0;exitX=0;exitY=0;exitDx=0;exitDy=0;" parent="1" source="MLTy6W-7F-OALNMRYZay-83" edge="1">
          <mxGeometry relative="1" as="geometry">
            <mxPoint x="450" y="-2120" as="sourcePoint" />
            <mxPoint x="380" y="-2120" as="targetPoint" />
            <Array as="points">
              <mxPoint x="440" y="-2120" />
              <mxPoint x="440" y="-2120" />
            </Array>
          </mxGeometry>
        </mxCell>
        <mxCell id="MLTy6W-7F-OALNMRYZay-172" value="parent" style="edgeLabel;resizable=0;html=1;align=left;verticalAlign=bottom;" parent="MLTy6W-7F-OALNMRYZay-171" connectable="0" vertex="1">
          <mxGeometry x="-1" relative="1" as="geometry" />
        </mxCell>
        <mxCell id="MLTy6W-7F-OALNMRYZay-173" value="child" style="edgeLabel;resizable=0;html=1;align=right;verticalAlign=bottom;" parent="MLTy6W-7F-OALNMRYZay-171" connectable="0" vertex="1">
          <mxGeometry x="1" relative="1" as="geometry" />
        </mxCell>
        <mxCell id="MLTy6W-7F-OALNMRYZay-179" value="Use" style="endArrow=open;endSize=12;dashed=1;html=1;rounded=0;entryX=-0.008;entryY=0.092;entryDx=0;entryDy=0;entryPerimeter=0;" parent="1" target="MLTy6W-7F-OALNMRYZay-159" edge="1">
          <mxGeometry width="160" relative="1" as="geometry">
            <mxPoint x="380" y="-2250" as="sourcePoint" />
            <mxPoint x="510" y="-2190" as="targetPoint" />
          </mxGeometry>
        </mxCell>
      </root>
    </mxGraphModel>
  </diagram>
  <diagram id="bAr6KOa1cwhMA9fdBlkI" name="페이지-5">
    <mxGraphModel dx="603" dy="775" grid="1" gridSize="10" guides="1" tooltips="1" connect="1" arrows="1" fold="1" page="1" pageScale="1" pageWidth="827" pageHeight="1169" math="0" shadow="0">
      <root>
        <mxCell id="0" />
        <mxCell id="1" parent="0" />
        <mxCell id="zR1cgUNsSRMBLxBGMjGi-1" value="교수" style="shape=umlActor;verticalLabelPosition=bottom;verticalAlign=top;html=1;outlineConnect=0;" vertex="1" parent="1">
          <mxGeometry x="1110" y="200" width="30" height="60" as="geometry" />
        </mxCell>
        <mxCell id="zR1cgUNsSRMBLxBGMjGi-2" value="" style="rounded=0;whiteSpace=wrap;html=1;" vertex="1" parent="1">
          <mxGeometry x="1241" y="100" width="439" height="530" as="geometry" />
        </mxCell>
        <mxCell id="zR1cgUNsSRMBLxBGMjGi-11" value="학교 일정 열람" style="ellipse;whiteSpace=wrap;html=1;" vertex="1" parent="1">
          <mxGeometry x="1310" y="325" width="120" height="80" as="geometry" />
        </mxCell>
        <mxCell id="zR1cgUNsSRMBLxBGMjGi-12" value="과제 수행" style="ellipse;whiteSpace=wrap;html=1;" vertex="1" parent="1">
          <mxGeometry x="1310" y="460" width="120" height="80" as="geometry" />
        </mxCell>
        <mxCell id="zR1cgUNsSRMBLxBGMjGi-13" value="과제 출제" style="ellipse;whiteSpace=wrap;html=1;" vertex="1" parent="1">
          <mxGeometry x="1310" y="110" width="120" height="80" as="geometry" />
        </mxCell>
        <mxCell id="zR1cgUNsSRMBLxBGMjGi-14" value="학생" style="shape=umlActor;verticalLabelPosition=bottom;verticalAlign=top;html=1;outlineConnect=0;" vertex="1" parent="1">
          <mxGeometry x="1110" y="440" width="30" height="60" as="geometry" />
        </mxCell>
        <mxCell id="zR1cgUNsSRMBLxBGMjGi-15" value="과제 파일 업로드" style="ellipse;whiteSpace=wrap;html=1;" vertex="1" parent="1">
          <mxGeometry x="1440" y="540" width="120" height="80" as="geometry" />
        </mxCell>
        <mxCell id="zR1cgUNsSRMBLxBGMjGi-16" value="성적 입력" style="ellipse;whiteSpace=wrap;html=1;" vertex="1" parent="1">
          <mxGeometry x="1490" y="170" width="120" height="80" as="geometry" />
        </mxCell>
        <mxCell id="zR1cgUNsSRMBLxBGMjGi-17" value="출결 관리" style="ellipse;whiteSpace=wrap;html=1;" vertex="1" parent="1">
          <mxGeometry x="1320" y="210" width="120" height="80" as="geometry" />
        </mxCell>
      </root>
    </mxGraphModel>
  </diagram>
</mxfile>
